<svg xmlns="http://www.w3.org/2000/svg" viewBox="0 0 62.44 11.39"><defs><style>.cls-1{fill:#231f20;}</style></defs><title>Name-1</title><g id="Layer_2" data-name="Layer 2"><g id="Name-1"><path class="cls-1" d="M2,6.18a.74.74,0,0,0-.18.59V9.41a1.61,1.61,0,0,1-.29,1.08,1.25,1.25,0,0,1-1,.32H0V10H.36a.66.66,0,0,0,.39-.09.4.4,0,0,0,.12-.34V6.77a1.5,1.5,0,0,1,.29-.94,1,1,0,0,1,.69-.41A1.07,1.07,0,0,1,1.16,5,1.5,1.5,0,0,1,.87,4V1.23A.4.4,0,0,0,.75.89.67.67,0,0,0,.36.81H0V0H.52a1.25,1.25,0,0,1,1,.32A1.61,1.61,0,0,1,1.77,1.4V4A.74.74,0,0,0,2,4.63a1,1,0,0,0,.64.14V6A1.1,1.1,0,0,0,2,6.18Z"/><path class="cls-1" d="M3.85,4.63A.74.74,0,0,0,4,4V1.4A1.61,1.61,0,0,1,4.31.32a1.27,1.27,0,0,1,1-.32H5.8V.81H5.44A.7.7,0,0,0,5,.89a.4.4,0,0,0-.12.34V4A1.5,1.5,0,0,1,4.64,5a1.09,1.09,0,0,1-.7.44,1,1,0,0,1,.7.41,1.5,1.5,0,0,1,.28.94V9.58A.4.4,0,0,0,5,9.92a.7.7,0,0,0,.4.09H5.8v.8H5.28a1.27,1.27,0,0,1-1-.32A1.61,1.61,0,0,1,4,9.41V6.77a.74.74,0,0,0-.18-.59A1.1,1.1,0,0,0,3.21,6V4.77A1,1,0,0,0,3.85,4.63Z"/><path class="cls-1" d="M10.18,9.34a.83.83,0,0,1-.3-.26.85.85,0,0,1-.7.35h-.8a1.93,1.93,0,0,1-1.27-.35,1.54,1.54,0,0,1-.39-1.2V7.65c0-1.19.56-1.78,1.67-1.78h1.2V5.29a.68.68,0,0,0-.22-.55.93.93,0,0,0-.64-.2H7.18V3.68H8.61a2.15,2.15,0,0,1,1.48.44,1.81,1.81,0,0,1,.48,1.4V8.28a.28.28,0,0,0,.13.26.84.84,0,0,0,.44.08v.81h-.63A.75.75,0,0,1,10.18,9.34ZM9.5,8.41A.87.87,0,0,0,9.59,8V6.73H8.38a.66.66,0,0,0-.49.19.69.69,0,0,0-.2.5V8a.5.5,0,0,0,.58.58h.79C9.29,8.57,9.44,8.51,9.5,8.41Z"/><path class="cls-1" d="M12.43,10.42a.3.3,0,0,0,.11-.24V3.68h1v6.44a1.29,1.29,0,0,1-.33.93,1.18,1.18,0,0,1-.86.34H11.09v-.87h1A.44.44,0,0,0,12.43,10.42Zm0-8v-1h1.09v1Z"/><path class="cls-1" d="M15.28,2.42v-1h1.1v1Zm.06,7V3.68h1V9.43Z"/><path class="cls-1" d="M18.16,3.68h.92V4A1.42,1.42,0,0,1,20,3.68h.07a1.87,1.87,0,0,1,1.49.53,1.46,1.46,0,0,1,1.19-.53h.07a1.92,1.92,0,0,1,1.38.44,1.88,1.88,0,0,1,.46,1.4V9.43h-1V5.29a.77.77,0,0,0-.2-.55.77.77,0,0,0-.55-.2h-.3a.63.63,0,0,0-.53.22.76.76,0,0,0-.2.45V9.43h-1V5.29a.77.77,0,0,0-.2-.55.73.73,0,0,0-.54-.2h-.3a.76.76,0,0,0-.55.19.58.58,0,0,0-.19.41V9.43h-1Z"/><path class="cls-1" d="M26.79,9a1.86,1.86,0,0,1-.47-1.41V5.52a1.9,1.9,0,0,1,.43-1.41,1.9,1.9,0,0,1,1.41-.43h.31a1.61,1.61,0,0,1,1.24.45,1.91,1.91,0,0,1,.42,1.33V7H27.3v.86a.68.68,0,0,0,.22.55.93.93,0,0,0,.64.2h1.6v.86H28.28A2.16,2.16,0,0,1,26.79,9Zm2.38-2.9V5.23A.66.66,0,0,0,29,4.74a.69.69,0,0,0-.5-.2h-.43a.76.76,0,0,0-.58.19.83.83,0,0,0-.17.56V6.1Z"/><path class="cls-1" d="M36.08,9.43H34.87V8.56H36.5a1,1,0,0,0,.69-.26.8.8,0,0,0,.27-.61v-1a.84.84,0,0,0-.18-.56A.67.67,0,0,0,36.74,6h-.23a1.8,1.8,0,0,1-1.34-.5A2,2,0,0,1,34.67,4V3.68a1.7,1.7,0,0,1,1.41-1.89V.46h1V1.73h1.22V2.6H36.63a.93.93,0,0,0-.69.25.8.8,0,0,0-.27.61v.76a.81.81,0,0,0,.23.59.8.8,0,0,0,.6.24h.23A1.7,1.7,0,0,1,38,5.52,2,2,0,0,1,38.46,7v.53a2.08,2.08,0,0,1-.37,1.27,1.75,1.75,0,0,1-1,.62V10.7h-1Z"/><path class="cls-1" d="M43.05,9.17a1.59,1.59,0,0,1-.92.26H42A1.92,1.92,0,0,1,40.59,9a1.88,1.88,0,0,1-.46-1.4V3.68h1V7.82a.69.69,0,0,0,.75.75h.39a.71.71,0,0,0,.55-.19A.69.69,0,0,0,43,8V3.68h1V9.43h-.92Z"/><path class="cls-1" d="M46.47,8.58h2.37v.85H45.41V8.51l2.5-4H45.64V3.68H49v1Z"/><path class="cls-1" d="M53.31,9.17a1.61,1.61,0,0,1-.92.26h-.16A1.92,1.92,0,0,1,50.85,9a1.84,1.84,0,0,1-.46-1.4V3.68h1V7.82a.69.69,0,0,0,.75.75h.39a.68.68,0,0,0,.54-.19.64.64,0,0,0,.2-.41V3.68h1V9.43h-.92Z"/><path class="cls-1" d="M59,9.43,57.37,6.59,57.05,7V9.43h-1v-8h1v4.3l1.73-2H60L58.06,5.9l2,3.53Z"/><path class="cls-1" d="M61.35,2.42v-1h1.09v1Zm.06,7V3.68h1V9.43Z"/></g></g></svg>