<svg xmlns="http://www.w3.org/2000/svg" viewBox="0 0 36.62 25.64"><title>Logo</title><g id="Layer_2" data-name="Layer 2"><g id="Logo"><path class="cls-1" d="M1.51,11a1.75,1.75,0,0,0,.43-1.4V3.33A3.8,3.8,0,0,1,2.62.75,3,3,0,0,1,4.91,0H6.14V1.91H5.29a1.73,1.73,0,0,0-.94.2,1,1,0,0,0-.29.81V9.58a3.6,3.6,0,0,1-.66,2.23,2.61,2.61,0,0,1-1.65,1,2.37,2.37,0,0,1,1.65,1,3.61,3.61,0,0,1,.66,2.24v6.65a1,1,0,0,0,.29.81,1.73,1.73,0,0,0,.94.2h.85v1.91H4.91a3,3,0,0,1-2.29-.75,3.8,3.8,0,0,1-.68-2.58V16.07a1.76,1.76,0,0,0-.43-1.41A2.52,2.52,0,0,0,0,14.32v-3A2.45,2.45,0,0,0,1.51,11Z"/><path class="cls-1" d="M9.64,6h2v5.15a3,3,0,0,1,1.76-.47H14a3.9,3.9,0,0,1,2.82.89,3.79,3.79,0,0,1,.92,2.85v8h-2V14a1.5,1.5,0,0,0-.41-1.11,1.53,1.53,0,0,0-1.11-.41H13.15a1.5,1.5,0,0,0-1.13.39,1.14,1.14,0,0,0-.39.83v8.72h-2Z"/><path class="cls-1" d="M26.63,21.64a4,4,0,0,1-2.61.73H21V20.62h3.25a1.48,1.48,0,0,0,1-.27,1,1,0,0,0,.32-.79V18.32c0-.7-.33-1.05-1-1.05h-.4a3.61,3.61,0,0,1-2.44-.71,2.87,2.87,0,0,1-.81-2.26v-.68a2.68,2.68,0,0,1,.89-2.25,4.2,4.2,0,0,1,2.62-.69h2.66v1.75h-2.9a1.47,1.47,0,0,0-.93.27.91.91,0,0,0-.35.78v.85a1,1,0,0,0,.31.79,1.25,1.25,0,0,0,.81.26h.33a3.35,3.35,0,0,1,2.38.76,2.9,2.9,0,0,1,.82,2.25v1.06A2.64,2.64,0,0,1,26.63,21.64Z"/><path class="cls-1" d="M35.1,14.66a1.79,1.79,0,0,0-.42,1.41v6.24A3.86,3.86,0,0,1,34,24.89a3,3,0,0,1-2.29.75H30.48V23.73h.85a1.73,1.73,0,0,0,.94-.2,1,1,0,0,0,.28-.81V16.07a3.61,3.61,0,0,1,.67-2.24,2.37,2.37,0,0,1,1.65-1,2.61,2.61,0,0,1-1.65-1,3.6,3.6,0,0,1-.67-2.23V2.92a1,1,0,0,0-.28-.81,1.73,1.73,0,0,0-.94-.2h-.85V0h1.23A3,3,0,0,1,34,.75a3.86,3.86,0,0,1,.68,2.58V9.58A1.78,1.78,0,0,0,35.1,11a2.5,2.5,0,0,0,1.52.34v3A2.58,2.58,0,0,0,35.1,14.66Z"/></g></g></svg>